<svg version="1.1" id="Layer_1" xmlns="http://www.w3.org/2000/svg" xmlns:xlink="http://www.w3.org/1999/xlink" x="0px" y="0px"
	 width="100%" viewBox="0 0 450 554" enable-background="new 0 0 450 554" xml:space="preserve">
<path fill="none" opacity="1.000000" stroke="none" 
	d="
M451.000000,220.000000 
	C451.000000,331.999969 451.000000,443.499969 451.000000,555.000000 
	C301.000061,555.000000 151.000122,555.000000 1.000140,555.000000 
	C1.000094,370.333435 1.000094,185.666885 1.000047,1.000239 
	C150.999863,1.000160 300.999725,1.000160 450.999786,1.000080 
	C451.000000,73.833336 451.000000,146.666672 451.000000,220.000000 
M374.997559,258.002441 
	C374.997559,258.002441 374.995636,258.010071 374.781616,257.567322 
	C374.581421,257.290619 374.317535,257.104065 373.998779,257.001221 
	C373.998779,257.001221 373.992889,257.010956 373.779755,256.557800 
	C373.515015,256.360870 373.250305,256.163940 372.973969,256.025482 
	C372.973969,256.025482 373.032410,256.013672 372.800140,255.560898 
	C372.528473,255.364578 372.256775,255.168274 371.971436,255.027145 
	C371.971436,255.027145 372.026520,255.012985 371.810883,254.546997 
	C371.535400,254.352158 371.259918,254.157333 370.976135,254.024017 
	C370.976135,254.024017 371.037384,254.014023 370.820160,253.557800 
	C370.546417,253.372421 370.272675,253.187027 370.000000,253.000000 
	C370.000000,253.000000 369.998352,253.001007 369.794189,252.561478 
	C369.599335,252.283981 369.337067,252.105621 369.022705,251.976654 
	C369.022705,251.976654 368.973480,251.993530 368.773712,251.562820 
	C368.581116,251.293427 368.324707,251.116669 368.012146,250.984314 
	C368.012146,250.984314 367.971497,251.011429 367.717499,250.450836 
	C366.809082,249.635269 365.900665,248.819687 365.000000,248.000000 
	C365.000000,248.000000 364.994476,248.003723 364.773285,247.577744 
	C364.575043,247.311050 364.316772,247.129883 364.016785,246.988480 
	C364.016785,246.988480 363.970612,247.005753 363.788269,246.542480 
	C363.590271,246.256134 363.323151,246.067795 362.981964,246.027054 
	C362.981964,246.027054 363.024200,246.000565 362.718933,245.439011 
	C361.474213,244.286896 360.229523,243.134766 358.748718,241.534714 
	C358.466583,241.356842 358.184479,241.178970 357.768646,240.643860 
	C357.632599,240.384369 357.419250,240.273453 356.471527,240.153030 
	C356.253571,240.096207 356.035583,240.039383 355.489532,239.527481 
	C354.985291,239.331696 354.481049,239.135910 354.204987,239.040817 
	C354.204987,239.040817 354.311646,238.815384 354.055664,238.214127 
	C352.687408,237.179688 351.319153,236.145248 349.981049,235.055634 
	C349.981049,235.055634 349.919769,235.041489 349.661041,234.458252 
	C348.430969,233.655594 347.200897,232.852921 346.008026,232.014999 
	C346.008026,232.014999 345.962372,232.033508 345.720184,231.394012 
	C339.292847,226.432571 333.078430,221.158417 326.378510,216.597443 
	C319.641968,212.011520 312.469971,208.052673 305.401306,203.970490 
	C297.686096,199.514923 289.870483,195.233154 282.037567,190.896423 
	C282.037567,190.896423 282.070099,190.952118 281.911438,190.389740 
	C281.556702,190.316238 281.201965,190.242752 280.482025,190.149277 
	C280.482025,190.149277 280.139984,190.019852 279.851166,189.382706 
	C278.576050,188.864136 277.300934,188.345581 275.867126,187.457901 
	C275.711884,187.231689 275.511658,187.057083 274.968933,186.371780 
	C274.579193,186.265579 274.189423,186.159363 273.206635,185.709702 
	C268.832520,183.075439 264.458374,180.441177 259.918457,177.387115 
	C259.732086,177.120407 259.476593,176.974747 259.115784,176.792343 
	C259.115784,176.792343 258.992096,176.687866 258.759003,176.144775 
	C257.581299,175.075394 256.403595,174.006012 254.878738,172.529282 
	C254.605972,172.300842 254.333221,172.072388 254.017578,171.061859 
	C251.962967,164.819244 253.374847,161.170074 258.395813,157.284866 
	C269.785645,148.471481 277.713135,137.156921 283.308075,123.816475 
	C288.596588,111.206657 288.717621,98.487511 287.040436,85.344101 
	C285.759735,75.307800 281.285339,66.526306 276.564606,57.921062 
	C273.417389,52.184116 269.786316,46.451183 265.268860,41.783978 
	C256.900391,33.138065 248.029175,24.905788 238.764786,17.228352 
	C233.524109,12.885396 227.084656,9.989023 220.858856,6.244846 
	C220.226227,8.162757 219.955383,8.626257 219.947784,9.094030 
	C219.937424,9.732184 220.005844,10.424726 220.249832,11.006077 
	C225.317017,23.079201 223.169067,35.239124 219.219513,46.773872 
	C215.445618,57.795555 209.761505,68.163170 204.337906,79.267815 
	C203.629303,81.566208 202.920685,83.864609 201.837524,86.756676 
	C196.914017,96.423981 194.125320,106.472855 193.811905,117.519264 
	C193.524399,127.652557 191.551346,137.746475 190.158127,147.835236 
	C189.690735,151.219696 188.722153,154.534958 187.448608,158.346603 
	C184.944611,162.910660 182.462967,167.487183 179.925034,172.032272 
	C178.981308,173.722366 177.905853,175.338882 176.983109,177.018341 
	C176.983109,177.018341 177.012512,176.925720 176.489532,177.099777 
	C176.303207,177.404831 176.116867,177.709885 175.999207,177.991486 
	C175.999207,177.991486 175.975739,177.922806 175.409729,178.232193 
	C174.336365,179.496994 173.263016,180.761780 172.046417,182.076218 
	C172.046417,182.076218 172.003036,182.221481 171.317642,182.104996 
	C170.576324,182.747314 169.834991,183.389633 169.013321,184.042068 
	C169.013321,184.042068 169.023468,184.122406 168.290100,184.129425 
	C164.403000,185.929153 160.484512,187.664490 156.634583,189.540512 
	C144.369476,195.517120 132.057587,201.405304 119.922958,207.637589 
	C116.109901,209.595947 112.799530,212.533035 109.116966,215.492416 
	C109.116966,215.492416 109.027283,215.975449 108.309044,216.071228 
	C100.686028,219.186768 95.607117,225.449814 89.959114,230.993042 
	C89.959114,230.993042 90.006653,230.941086 89.525284,231.135468 
	C89.355919,231.426010 89.186562,231.716537 88.430153,232.336868 
	C86.151527,234.231476 83.652718,235.918304 81.633759,238.057922 
	C74.299278,245.830673 66.708366,253.419540 60.024002,261.729218 
	C54.735943,268.303009 50.635319,275.832001 45.394081,283.238525 
	C44.232990,285.147644 43.071899,287.056732 41.970573,288.987640 
	C41.970573,288.987640 41.977390,288.924377 41.422523,289.232422 
	C41.328384,289.842224 41.234245,290.451996 41.056652,291.424713 
	C41.056652,291.424713 41.009415,291.794098 40.427395,292.215607 
	C39.258453,294.809082 38.089512,297.402588 36.985374,299.990112 
	C36.985374,299.990112 36.967743,299.927460 36.374054,300.282990 
	C35.638180,302.188385 34.902302,304.093811 33.885216,306.628571 
	C33.582302,307.726196 33.279388,308.823822 32.483681,310.413971 
	C31.964996,311.945953 31.446314,313.477905 30.993288,315.003082 
	C30.993288,315.003082 30.976826,314.939148 30.370632,315.378571 
	C28.989975,321.927002 27.609318,328.475464 26.018166,335.843109 
	C26.044847,346.066467 25.342468,356.355988 26.262505,366.498322 
	C27.789553,383.332153 33.859291,399.141418 42.525826,413.326996 
	C54.474285,432.884521 71.092972,448.446564 90.280632,461.082489 
	C104.719017,470.590820 120.218430,477.857819 136.640274,483.348022 
	C158.110291,490.526001 180.130035,494.726898 202.668274,495.781708 
	C213.089645,496.269440 223.583817,495.283234 234.041946,494.885529 
	C251.713867,494.213470 268.646240,489.884308 285.566620,485.035980 
	C305.874207,479.217102 324.681366,470.251770 342.161896,458.723419 
	C361.146698,446.202911 377.596008,430.638977 389.577759,411.177063 
	C395.147369,402.130280 398.587097,391.772308 403.533539,381.540710 
	C404.020538,379.686798 404.507568,377.832855 404.984222,375.983337 
	C404.984222,375.983337 404.980652,375.993500 405.449677,375.689362 
	C405.539001,375.156158 405.628326,374.622986 405.797607,373.392395 
	C405.831573,372.925659 405.865540,372.458893 406.435852,371.573212 
	C406.557404,370.697540 406.678925,369.821899 406.878662,368.309235 
	C406.911530,367.882843 406.944366,367.456421 407.567261,366.555786 
	C407.630463,365.052917 407.693665,363.550049 407.865234,361.396606 
	C407.913483,360.959564 407.961700,360.522491 408.560333,359.549866 
	C408.608398,358.028900 408.656464,356.507935 408.802368,354.057281 
	C408.780548,348.374756 408.758728,342.692261 408.863037,336.141724 
	C407.580353,329.811768 406.297668,323.481781 404.752808,316.451385 
	C402.135498,300.024506 395.462555,285.333862 385.660614,271.541748 
	C385.507294,271.285217 385.285339,271.122162 384.996765,270.997498 
	C384.996765,270.997498 384.952850,271.030731 384.627319,270.451874 
	C382.740723,268.312531 380.854095,266.173187 378.996826,263.997559 
	C378.996826,263.997559 378.960205,264.029755 378.821198,263.386169 
	C377.854767,262.268555 376.888336,261.150909 375.834747,259.477936 
	C375.799927,259.293793 375.765137,259.109650 375.673706,258.500275 
	C375.506165,258.252167 375.278442,258.087097 374.997559,258.002441 
z"/>
<path fill="#479622" opacity="1.000000" stroke="none" 
	d="
M254.060455,171.843948 
	C254.333221,172.072388 254.605972,172.300842 255.146133,173.043777 
	C256.606384,174.601471 257.799255,175.644669 258.992096,176.687866 
	C258.992096,176.687866 259.115784,176.792343 259.272736,177.032547 
	C259.624756,177.479156 259.842926,177.657211 260.084259,177.806915 
	C264.458374,180.441177 268.832520,183.075439 273.751709,186.024109 
	C274.619995,186.537048 274.943207,186.735565 275.266418,186.934097 
	C275.511658,187.057083 275.711884,187.231689 276.161407,187.905777 
	C277.683777,188.909058 278.911896,189.464462 280.139984,190.019852 
	C280.139984,190.019852 280.482025,190.149277 280.873352,190.283569 
	C281.535034,190.593124 281.803497,190.771225 282.070099,190.952118 
	C282.070099,190.952118 282.037567,190.896423 282.197815,191.200226 
	C284.111084,193.201355 285.652191,195.218185 287.651337,196.544586 
	C301.565186,205.776123 315.574066,214.864502 329.846252,224.198456 
	C330.568878,224.605392 330.997711,224.812607 331.441071,225.038086 
	C331.455597,225.056366 331.486847,225.021713 331.685699,225.323364 
	C333.580780,226.918381 335.277039,228.211761 337.127930,229.689575 
	C337.789642,230.242218 338.296692,230.610413 339.018097,231.245575 
	C346.222290,238.179367 353.579407,244.505905 360.131744,251.578064 
	C378.295044,271.182312 392.248047,293.012024 397.088257,320.046265 
	C403.346619,355.001099 395.407135,386.117493 373.817078,413.995514 
	C356.430542,436.445801 333.564636,451.899750 308.023773,463.164581 
	C286.665955,472.584473 264.359924,479.432190 240.833176,481.663025 
	C203.180069,485.233429 166.300888,483.456512 130.943802,468.214447 
	C100.254669,454.984680 73.157921,437.306091 54.532303,408.650055 
	C40.899487,387.675598 34.789677,364.802429 36.852650,339.809448 
	C38.170364,323.845337 42.736084,308.773834 49.516777,293.983704 
	C53.944138,287.141235 57.886627,280.365295 62.436436,274.025116 
	C73.812447,258.172607 86.672966,243.745758 101.718246,231.102966 
	C118.172485,217.276245 135.793121,205.867737 155.844269,197.950211 
	C173.754196,190.878204 186.930588,178.925354 191.232147,159.144394 
	C192.441864,153.581451 193.795288,148.049728 195.311264,141.519501 
	C196.470474,143.637741 197.152954,144.884842 197.967957,146.460297 
	C210.766876,176.547318 236.735199,189.164291 265.509247,199.602219 
	C264.940765,198.465317 264.875977,198.079514 264.655579,197.940521 
	C263.812439,197.408829 262.910858,196.971069 262.045990,196.472397 
	C246.036865,187.241486 229.843948,178.311432 217.843033,163.622437 
	C209.573044,153.500076 202.646683,142.668365 202.150375,129.287613 
	C201.825943,120.540428 203.150772,111.732056 203.876373,102.593735 
	C205.357117,97.827919 206.698364,93.419456 208.249908,88.742966 
	C210.357468,84.358932 212.254730,80.242912 214.344055,75.840591 
	C221.609619,60.463184 228.738297,45.402966 230.076691,28.403990 
	C230.383362,24.508905 232.016068,23.909819 235.377609,26.163065 
	C237.311234,27.459181 239.189423,28.843000 241.043686,30.251703 
	C254.031509,40.118763 265.858582,51.108276 272.653625,66.300461 
	C282.540924,88.406296 282.827240,110.227379 269.071259,131.033325 
	C264.953430,137.261505 259.889191,142.857941 255.634537,149.004105 
	C253.309875,152.362274 251.203827,156.092468 250.027130,159.967087 
	C248.651199,164.497650 249.700348,168.910385 254.060455,171.843948 
M119.983124,443.142639 
	C119.983124,443.142639 120.077614,442.939606 119.814842,442.621521 
	C119.400040,442.415649 118.985237,442.209808 118.570435,442.003967 
	C118.489563,442.200836 118.408691,442.397736 118.327820,442.594604 
	C118.854027,442.768005 119.380226,442.941437 119.983124,443.142639 
M82.025703,401.002411 
	C82.025703,401.002411 82.071861,400.969482 81.863770,400.279053 
	C79.901924,396.191956 77.940079,392.104889 75.819588,387.489136 
	C75.583939,386.991272 75.348289,386.493439 74.980202,385.282288 
	C74.366508,383.475525 73.752815,381.668732 73.082878,379.223572 
	C73.024841,378.800293 72.966812,378.377045 72.808617,377.346954 
	C72.535324,376.574249 72.262032,375.801544 71.911476,374.221252 
	C71.563324,372.426575 71.200363,370.634583 70.869225,368.836792 
	C64.906822,336.465454 72.665527,307.831024 94.519775,283.191223 
	C110.649307,265.005798 130.974930,253.833984 154.735931,249.445831 
	C163.101089,247.900970 171.876450,248.114334 180.444641,248.326721 
	C184.739700,248.433167 188.365005,250.970566 187.884811,256.285645 
	C185.610733,256.824951 183.336670,257.364227 180.248596,257.991791 
	C158.669617,262.595093 139.587708,272.328796 123.106384,286.843658 
	C114.522484,294.403351 106.537842,302.723511 102.041321,314.471222 
	C86.132957,340.715057 90.263229,374.502686 111.311386,400.099091 
	C125.973206,417.929169 144.680099,429.912598 166.487274,437.307861 
	C215.619720,453.969666 262.779968,450.270386 306.848724,422.285065 
	C332.407867,406.054016 349.303406,383.348236 350.335724,351.685699 
	C350.768341,338.415802 348.569183,325.466187 340.700165,313.404358 
	C334.029175,298.886719 322.833923,288.314270 310.344543,278.962067 
	C300.426331,271.535217 289.678650,265.644928 277.041779,262.204468 
	C271.884094,259.389618 271.813934,259.859955 269.522339,264.585724 
	C266.673767,270.460052 263.381561,276.320709 259.222443,281.303864 
	C254.683487,286.742096 248.930130,291.165924 243.712448,296.038727 
	C233.495850,305.579956 230.850494,317.267334 233.703903,330.634216 
	C234.066483,332.332764 233.363190,334.258820 232.766571,335.508209 
	C221.254547,322.593475 218.134323,307.945221 223.334946,291.396606 
	C225.027924,286.009491 226.504288,280.482605 227.332047,274.908630 
	C229.839722,258.022644 225.737564,243.363953 211.134933,233.196533 
	C202.616547,227.265411 192.548660,225.782242 182.459412,226.290695 
	C156.206406,227.613693 131.791718,235.194031 109.269333,248.861893 
	C91.138992,259.864441 75.900620,273.776123 66.055962,292.764923 
	C55.669605,312.798615 53.607563,334.227417 56.498100,356.410522 
	C59.066395,376.120636 67.279747,393.289764 79.334366,409.504089 
	C79.873344,410.083435 80.412323,410.662750 81.115334,411.741791 
	C81.390327,412.186066 81.665321,412.630310 82.337761,413.571014 
	C83.537338,414.404175 84.736908,415.237335 85.884636,416.106720 
	C85.884636,416.106720 85.903008,416.167206 86.156158,416.775177 
	C93.447655,427.189758 103.875214,433.638214 114.719330,439.525757 
	C106.552116,430.965454 98.384911,422.405151 89.982132,413.352386 
	C89.690712,412.891571 89.399292,412.430725 88.865547,411.364594 
	C87.926514,410.183014 86.987480,409.001404 86.003105,407.387024 
	C86.003105,407.387024 85.947083,406.955505 85.678886,406.530731 
	C85.451965,406.282135 85.225037,406.033508 84.823044,405.306366 
	C84.569847,404.865814 84.316650,404.425262 83.838448,403.410217 
	C83.238503,402.589233 82.638550,401.768219 82.025703,401.002411 
M233.904190,118.233742 
	C233.464844,119.478142 232.953125,120.702232 232.597214,121.970047 
	C228.753021,135.664032 225.492386,149.318314 232.030334,163.224274 
	C234.285172,168.020218 241.470917,173.671860 247.045731,173.519348 
	C237.514252,161.842804 234.955856,148.422943 236.151062,134.326492 
	C236.896027,125.540337 239.081741,116.884674 240.379364,108.134628 
	C241.626373,99.725876 242.562256,91.270981 243.634842,82.836365 
	C243.294266,82.797722 242.953690,82.759071 242.613129,82.720421 
	C239.730011,94.286469 236.846893,105.852516 233.904190,118.233742 
z"/>
<path fill="#296B1C" opacity="1.000000" stroke="none" 
	d="
M49.308342,294.248596 
	C42.736084,308.773834 38.170364,323.845337 36.852650,339.809448 
	C34.789677,364.802429 40.899487,387.675598 54.532303,408.650055 
	C73.157921,437.306091 100.254669,454.984680 130.943802,468.214447 
	C166.300888,483.456512 203.180069,485.233429 240.833176,481.663025 
	C264.359924,479.432190 286.665955,472.584473 308.023773,463.164581 
	C333.564636,451.899750 356.430542,436.445801 373.817078,413.995514 
	C395.407135,386.117493 403.346619,355.001099 397.088257,320.046265 
	C392.248047,293.012024 378.295044,271.182312 360.131744,251.578064 
	C353.579407,244.505905 346.222290,238.179367 339.346741,231.197449 
	C341.628174,231.266083 343.795258,231.649796 345.962372,232.033508 
	C345.962372,232.033508 346.008026,232.014999 346.168274,232.294800 
	C347.525574,233.396881 348.722687,234.219177 349.919769,235.041489 
	C349.919769,235.041489 349.981049,235.055634 350.090729,235.395935 
	C351.570831,236.762619 352.941223,237.789001 354.311646,238.815384 
	C354.311646,238.815384 354.204987,239.040817 354.323883,239.117050 
	C354.901031,239.456360 355.359314,239.719452 355.817566,239.982544 
	C356.035583,240.039383 356.253571,240.096207 356.929108,240.347290 
	C357.562958,240.689819 357.734833,240.843002 357.902344,241.001114 
	C358.184479,241.178970 358.466583,241.356842 358.860504,242.051422 
	C358.528503,245.830536 360.486664,246.257523 363.024200,246.000565 
	C363.024200,246.000565 362.981964,246.027054 363.144897,246.177475 
	C363.523346,246.559143 363.744293,246.785095 363.970612,247.005753 
	C363.970612,247.005753 364.016785,246.988480 364.172882,247.173355 
	C364.549286,247.574997 364.771118,247.790161 364.994476,248.003723 
	C364.994476,248.003723 365.000000,248.000000 365.126526,248.287369 
	C366.159210,249.386978 367.065369,250.199203 367.971497,251.011429 
	C367.971497,251.011429 368.012146,250.984314 368.167389,251.170807 
	C368.536560,251.572464 368.753510,251.784546 368.973480,251.993530 
	C368.973480,251.993530 369.022705,251.976654 369.174500,252.169312 
	C369.543884,252.581741 369.767914,252.794754 369.998352,253.001007 
	C369.998352,253.001007 370.000000,253.000000 370.168457,253.173431 
	C370.566101,253.573792 370.799591,253.796173 371.037384,254.014023 
	C371.037384,254.014023 370.976135,254.024017 371.150482,254.172058 
	C371.553589,254.556305 371.787476,254.787262 372.026520,255.012985 
	C372.026520,255.012985 371.971436,255.027145 372.150726,255.175552 
	C372.560455,255.557617 372.794586,255.787521 373.032410,256.013672 
	C373.032410,256.013672 372.973969,256.025482 373.145386,256.172852 
	C373.539124,256.553406 373.764496,256.783661 373.992889,257.010956 
	C373.992889,257.010956 373.998779,257.001221 374.159546,257.174011 
	C374.542267,257.571075 374.767365,257.792175 374.995636,258.010071 
	C374.995636,258.010071 374.997559,258.002441 375.116180,258.158234 
	C375.392212,258.524170 375.557404,258.727997 375.730316,258.925537 
	C375.765137,259.109650 375.799927,259.293793 375.870941,260.015015 
	C376.924835,261.711304 377.942505,262.870514 378.960205,264.029755 
	C378.960205,264.029755 378.996826,263.997559 379.037476,264.386353 
	C379.431152,268.367798 381.424713,270.419830 384.952850,271.030731 
	C384.952850,271.030731 384.996765,270.997498 385.109680,271.179779 
	C385.373871,271.570557 385.535370,271.770844 385.707092,271.962860 
	C395.462555,285.333862 402.135498,300.024506 404.840332,317.131012 
	C406.197540,324.210327 407.467224,330.610046 408.736908,337.009735 
	C408.758728,342.692261 408.780548,348.374756 408.562256,354.755066 
	C408.218079,356.997040 408.114044,358.541260 408.009949,360.085449 
	C407.961700,360.522491 407.913483,360.959564 407.634460,361.963165 
	C407.261536,364.029816 407.119354,365.529938 406.977173,367.030029 
	C406.944366,367.456421 406.911530,367.882843 406.668793,368.803833 
	C406.272461,370.196350 406.085968,371.094269 405.899506,371.992157 
	C405.865540,372.458893 405.831573,372.925659 405.649231,373.973083 
	C405.327454,375.033661 405.154053,375.513580 404.980652,375.993500 
	C404.980652,375.993500 404.984222,375.983337 404.755920,376.175110 
	C404.015900,378.247467 403.504120,380.128113 402.992310,382.008728 
	C398.587097,391.772308 395.147369,402.130280 389.577759,411.177063 
	C377.596008,430.638977 361.146698,446.202911 342.161896,458.723419 
	C324.681366,470.251770 305.874207,479.217102 285.566620,485.035980 
	C268.646240,489.884308 251.713867,494.213470 234.041946,494.885529 
	C223.583817,495.283234 213.089645,496.269440 202.668274,495.781708 
	C180.130035,494.726898 158.110291,490.526001 136.640274,483.348022 
	C120.218430,477.857819 104.719017,470.590820 90.280632,461.082489 
	C71.092972,448.446564 54.474285,432.884521 42.525826,413.326996 
	C33.859291,399.141418 27.789553,383.332153 26.262505,366.498322 
	C25.342468,356.355988 26.044847,346.066467 26.323288,335.140045 
	C28.077881,327.937714 29.527351,321.438416 30.976824,314.939148 
	C30.976826,314.939148 30.993288,315.003082 31.204157,314.758820 
	C31.935507,312.983521 32.455986,311.452484 32.976471,309.921448 
	C33.279388,308.823822 33.582302,307.726196 34.325115,306.152222 
	C35.499256,303.759735 36.233498,301.843597 36.967743,299.927460 
	C36.967743,299.927460 36.985374,299.990112 37.255386,299.821136 
	C38.686733,297.032806 39.848072,294.413452 41.009411,291.794098 
	C41.009415,291.794098 41.056652,291.424713 41.230194,290.985229 
	C41.594955,290.005280 41.786171,289.464844 41.977386,288.924377 
	C41.977390,288.924377 41.970573,288.987640 42.262100,288.906006 
	C43.676998,288.204926 44.800365,287.585449 46.167446,287.216980 
	C47.376884,289.728180 48.342613,291.988373 49.308342,294.248596 
z"/>
<path fill="#2D6B1F" opacity="1.000000" stroke="none" 
	d="
M254.039017,171.452911 
	C249.700348,168.910385 248.651199,164.497650 250.027130,159.967087 
	C251.203827,156.092468 253.309875,152.362274 255.634537,149.004105 
	C259.889191,142.857941 264.953430,137.261505 269.071259,131.033325 
	C282.827240,110.227379 282.540924,88.406296 272.653625,66.300461 
	C265.858582,51.108276 254.031509,40.118763 241.043686,30.251703 
	C239.189423,28.843000 237.311234,27.459181 235.377609,26.163065 
	C232.016068,23.909819 230.383362,24.508905 230.076691,28.403990 
	C228.738297,45.402966 221.609619,60.463184 214.030899,75.971901 
	C210.642761,77.151657 208.972321,82.211334 204.917053,78.818283 
	C209.761505,68.163170 215.445618,57.795555 219.219513,46.773872 
	C223.169067,35.239124 225.317017,23.079201 220.249832,11.006077 
	C220.005844,10.424726 219.937424,9.732184 219.947784,9.094030 
	C219.955383,8.626257 220.226227,8.162757 220.858856,6.244846 
	C227.084656,9.989023 233.524109,12.885396 238.764786,17.228352 
	C248.029175,24.905788 256.900391,33.138065 265.268860,41.783978 
	C269.786316,46.451183 273.417389,52.184116 276.564606,57.921062 
	C281.285339,66.526306 285.759735,75.307800 287.040436,85.344101 
	C288.717621,98.487511 288.596588,111.206657 283.308075,123.816475 
	C277.713135,137.156921 269.785645,148.471481 258.395813,157.284866 
	C253.374847,161.170074 251.962967,164.819244 254.039017,171.452911 
z"/>
<path fill="#2F6B1E" opacity="1.000000" stroke="none" 
	d="
M49.516777,293.983704 
	C48.342613,291.988373 47.376884,289.728180 46.177834,286.815369 
	C45.965469,285.087494 45.986431,284.012146 46.007397,282.936829 
	C50.635319,275.832001 54.735943,268.303009 60.024002,261.729218 
	C66.708366,253.419540 74.299278,245.830673 81.633759,238.057922 
	C83.652718,235.918304 86.151527,234.231476 88.896194,232.001373 
	C89.586601,231.432785 89.801399,231.191193 90.006653,230.941086 
	C90.006653,230.941086 89.959114,230.993042 90.340927,230.961426 
	C99.601585,229.344543 102.811089,220.819870 109.027283,215.975449 
	C109.027283,215.975449 109.116966,215.492416 109.551193,215.199524 
	C112.948906,213.532043 115.966789,212.262634 118.865852,210.763443 
	C128.116211,205.979797 137.341888,201.147430 146.539627,196.263306 
	C154.062088,192.268784 161.530884,188.173187 169.023468,184.122406 
	C169.023468,184.122406 169.013321,184.042068 169.321136,183.924927 
	C170.420319,183.279022 171.211685,182.750259 172.003036,182.221481 
	C172.003036,182.221481 172.046417,182.076218 172.432953,181.949646 
	C173.871582,180.522995 174.923660,179.222900 175.975739,177.922806 
	C175.975739,177.922806 175.999207,177.991486 176.158707,177.835083 
	C176.549637,177.427689 176.781082,177.176712 177.012512,176.925720 
	C177.012512,176.925720 176.983109,177.018341 177.239517,176.848755 
	C184.138458,172.169037 187.133667,165.624115 187.982666,157.881851 
	C188.722153,154.534958 189.690735,151.219696 190.158127,147.835236 
	C191.551346,137.746475 193.524399,127.652557 193.811905,117.519264 
	C194.125320,106.472855 196.914017,96.423981 202.141144,86.670685 
	C202.645187,87.028877 202.845627,87.473068 202.970612,88.283264 
	C199.760544,93.251747 202.736588,98.237801 201.796875,103.242691 
	C200.512497,105.821175 198.818329,108.058693 198.462982,110.491753 
	C197.654678,116.026070 197.178040,121.658424 197.212265,127.246979 
	C197.231735,130.427902 197.948181,133.893631 199.380798,136.706512 
	C201.342773,140.558685 201.537704,143.499786 197.835434,146.131958 
	C197.152954,144.884842 196.470474,143.637741 195.311264,141.519501 
	C193.795288,148.049728 192.441864,153.581451 191.232147,159.144394 
	C186.930588,178.925354 173.754196,190.878204 155.844269,197.950211 
	C135.793121,205.867737 118.172485,217.276245 101.718246,231.102966 
	C86.672966,243.745758 73.812447,258.172607 62.436436,274.025116 
	C57.886627,280.365295 53.944138,287.141235 49.516777,293.983704 
z"/>
<path fill="#3B6D2B" opacity="1.000000" stroke="none" 
	d="
M345.841278,231.713760 
	C343.795258,231.649796 341.628174,231.266083 339.132416,230.930481 
	C338.296692,230.610413 337.789642,230.242218 337.023102,229.316803 
	C335.004700,227.513641 333.245789,226.267685 331.486847,225.021713 
	C331.486847,225.021713 331.455597,225.056366 331.125854,224.864838 
	C330.381561,224.448456 329.967041,224.223618 329.552490,223.998779 
	C315.574066,214.864502 301.565186,205.776123 287.651337,196.544586 
	C285.652191,195.218185 284.111084,193.201355 282.228333,191.189819 
	C289.870483,195.233154 297.686096,199.514923 305.401306,203.970490 
	C312.469971,208.052673 319.641968,212.011520 326.378510,216.597443 
	C333.078430,221.158417 339.292847,226.432571 345.841278,231.713760 
z"/>
<path fill="#3C6B30" opacity="1.000000" stroke="none" 
	d="
M168.656784,184.125916 
	C161.530884,188.173187 154.062088,192.268784 146.539627,196.263306 
	C137.341888,201.147430 128.116211,205.979797 118.865852,210.763443 
	C115.966789,212.262634 112.948906,213.532043 109.622246,214.964386 
	C112.799530,212.533035 116.109901,209.595947 119.922958,207.637589 
	C132.057587,201.405304 144.369476,195.517120 156.634583,189.540512 
	C160.484512,187.664490 164.403000,185.929153 168.656784,184.125916 
z"/>
<path fill="#347123" opacity="1.000000" stroke="none" 
	d="
M203.046082,87.917267 
	C202.845627,87.473068 202.645187,87.028877 202.328415,86.373840 
	C202.920685,83.864609 203.629303,81.566208 204.627487,79.043053 
	C208.972321,82.211334 210.642761,77.151657 213.838837,76.258194 
	C212.254730,80.242912 210.357468,84.358932 207.901932,88.626877 
	C205.911133,88.491615 204.478607,88.204437 203.046082,87.917267 
z"/>
<path fill="#3C6B30" opacity="1.000000" stroke="none" 
	d="
M108.668167,216.023346 
	C102.811089,220.819870 99.601585,229.344543 90.315170,230.937424 
	C95.607117,225.449814 100.686028,219.186768 108.668167,216.023346 
z"/>
<path fill="#3C6B30" opacity="1.000000" stroke="none" 
	d="
M187.715637,158.114227 
	C187.133667,165.624115 184.138458,172.169037 177.193207,176.834076 
	C177.905853,175.338882 178.981308,173.722366 179.925034,172.032272 
	C182.462967,167.487183 184.944611,162.910660 187.715637,158.114227 
z"/>
<path fill="#336428" opacity="1.000000" stroke="none" 
	d="
M408.799988,336.575745 
	C407.467224,330.610046 406.197540,324.210327 404.971436,317.481232 
	C406.297668,323.481781 407.580353,329.811768 408.799988,336.575745 
z"/>
<path fill="#326029" opacity="1.000000" stroke="none" 
	d="
M30.673727,315.158875 
	C29.527351,321.438416 28.077881,327.937714 26.428537,334.730438 
	C27.609318,328.475464 28.989975,321.927002 30.673727,315.158875 
z"/>
<path fill="#3B6D2B" opacity="1.000000" stroke="none" 
	d="
M384.790100,270.741302 
	C381.424713,270.419830 379.431152,268.367798 379.022827,264.404480 
	C380.854095,266.173187 382.740723,268.312531 384.790100,270.741302 
z"/>
<path fill="#38642E" opacity="1.000000" stroke="none" 
	d="
M45.700737,283.087677 
	C45.986431,284.012146 45.965469,285.087494 45.934120,286.564392 
	C44.800365,287.585449 43.676998,288.204926 42.232216,288.895142 
	C43.071899,287.056732 44.232990,285.147644 45.700737,283.087677 
z"/>
<path fill="#38642E" opacity="1.000000" stroke="none" 
	d="
M40.718399,292.004852 
	C39.848072,294.413452 38.686733,297.032806 37.222984,299.824097 
	C38.089512,297.402588 39.258453,294.809082 40.718399,292.004852 
z"/>
<path fill="#38642E" opacity="1.000000" stroke="none" 
	d="
M36.670898,300.105225 
	C36.233498,301.843597 35.499256,303.759735 34.465721,305.837524 
	C34.902302,304.093811 35.638180,302.188385 36.670898,300.105225 
z"/>
<path fill="#3B6D2B" opacity="1.000000" stroke="none" 
	d="
M362.871582,245.719788 
	C360.486664,246.257523 358.528503,245.830536 358.978546,242.275391 
	C360.229523,243.134766 361.474213,244.286896 362.871582,245.719788 
z"/>
<path fill="#3B6D2B" opacity="1.000000" stroke="none" 
	d="
M354.183655,238.514755 
	C352.941223,237.789001 351.570831,236.762619 350.075653,235.423523 
	C351.319153,236.145248 352.687408,237.179688 354.183655,238.514755 
z"/>
<path fill="#3C6B30" opacity="1.000000" stroke="none" 
	d="
M175.692734,178.077499 
	C174.923660,179.222900 173.871582,180.522995 172.504578,181.924835 
	C173.263016,180.761780 174.336365,179.496994 175.692734,178.077499 
z"/>
<path fill="#3B6D2B" opacity="1.000000" stroke="none" 
	d="
M378.890686,263.707947 
	C377.942505,262.870514 376.924835,261.711304 375.914520,260.292664 
	C376.888336,261.150909 377.854767,262.268555 378.890686,263.707947 
z"/>
<path fill="#336428" opacity="1.000000" stroke="none" 
	d="
M403.262939,381.774719 
	C403.504120,380.128113 404.015900,378.247467 404.761108,376.172913 
	C404.507568,377.832855 404.020538,379.686798 403.262939,381.774719 
z"/>
<path fill="#336428" opacity="1.000000" stroke="none" 
	d="
M408.285156,359.817657 
	C408.114044,358.541260 408.218079,356.997040 408.513367,355.219910 
	C408.656464,356.507935 408.608398,358.028900 408.285156,359.817657 
z"/>
<path fill="#336428" opacity="1.000000" stroke="none" 
	d="
M407.272217,366.792908 
	C407.119354,365.529938 407.261536,364.029816 407.580292,362.288452 
	C407.693665,363.550049 407.630463,365.052917 407.272217,366.792908 
z"/>
<path fill="#2D6B1F" opacity="1.000000" stroke="none" 
	d="
M258.875549,176.416321 
	C257.799255,175.644669 256.606384,174.601471 255.319702,173.247437 
	C256.403595,174.006012 257.581299,175.075394 258.875549,176.416321 
z"/>
<path fill="#326029" opacity="1.000000" stroke="none" 
	d="
M32.730072,310.167725 
	C32.455986,311.452484 31.935507,312.983521 31.171329,314.762207 
	C31.446314,313.477905 31.964996,311.945953 32.730072,310.167725 
z"/>
<path fill="#3B6D2B" opacity="1.000000" stroke="none" 
	d="
M349.790405,234.749878 
	C348.722687,234.219177 347.525574,233.396881 346.149658,232.312408 
	C347.200897,232.852921 348.430969,233.655594 349.790405,234.749878 
z"/>
<path fill="#336428" opacity="1.000000" stroke="none" 
	d="
M406.167664,371.782684 
	C406.085968,371.094269 406.272461,370.196350 406.629700,369.122345 
	C406.678925,369.821899 406.557404,370.697540 406.167664,371.782684 
z"/>
<path fill="#3B6D2B" opacity="1.000000" stroke="none" 
	d="
M367.844482,250.731140 
	C367.065369,250.199203 366.159210,249.386978 365.122681,248.289429 
	C365.900665,248.819687 366.809082,249.635269 367.844482,250.731140 
z"/>
<path fill="#3B6D2B" opacity="1.000000" stroke="none" 
	d="
M279.995575,189.701279 
	C278.911896,189.464462 277.683777,188.909058 276.240753,188.090332 
	C277.300934,188.345581 278.576050,188.864136 279.995575,189.701279 
z"/>
<path fill="#3C6B30" opacity="1.000000" stroke="none" 
	d="
M171.660339,182.163239 
	C171.211685,182.750259 170.420319,183.279022 169.361313,183.919861 
	C169.834991,183.389633 170.576324,182.747314 171.660339,182.163239 
z"/>
<path fill="#336428" opacity="1.000000" stroke="none" 
	d="
M405.215149,375.841431 
	C405.154053,375.513580 405.327454,375.033661 405.609253,374.321777 
	C405.628326,374.622986 405.539001,375.156158 405.215149,375.841431 
z"/>
<path fill="#3B6D2B" opacity="1.000000" stroke="none" 
	d="
M355.653564,239.755005 
	C355.359314,239.719452 354.901031,239.456360 354.209778,239.066711 
	C354.481049,239.135910 354.985291,239.331696 355.653564,239.755005 
z"/>
<path fill="#38642E" opacity="1.000000" stroke="none" 
	d="
M41.699955,289.078400 
	C41.786171,289.464844 41.594955,290.005280 41.271927,290.803772 
	C41.234245,290.451996 41.328384,289.842224 41.699955,289.078400 
z"/>
<path fill="#3B6D2B" opacity="1.000000" stroke="none" 
	d="
M364.883881,247.790741 
	C364.771118,247.790161 364.549286,247.574997 364.163757,247.196259 
	C364.316772,247.129883 364.575043,247.311050 364.883881,247.790741 
z"/>
<path fill="#3C6B30" opacity="1.000000" stroke="none" 
	d="
M176.751038,177.012756 
	C176.781082,177.176712 176.549637,177.427689 176.124359,177.846802 
	C176.116867,177.709885 176.303207,177.404831 176.751038,177.012756 
z"/>
<path fill="#2D6B1F" opacity="1.000000" stroke="none" 
	d="
M260.001343,177.597015 
	C259.842926,177.657211 259.624756,177.479156 259.290863,177.111450 
	C259.476593,176.974747 259.732086,177.120407 260.001343,177.597015 
z"/>
<path fill="#3B6D2B" opacity="1.000000" stroke="none" 
	d="
M275.117676,186.652939 
	C274.943207,186.735565 274.619995,186.537048 274.048218,186.195847 
	C274.189423,186.159363 274.579193,186.265579 275.117676,186.652939 
z"/>
<path fill="#3B6D2B" opacity="1.000000" stroke="none" 
	d="
M281.990784,190.670929 
	C281.803497,190.771225 281.535034,190.593124 281.055969,190.293549 
	C281.201965,190.242752 281.556702,190.316238 281.990784,190.670929 
z"/>
<path fill="#3C6B30" opacity="1.000000" stroke="none" 
	d="
M89.765968,231.038269 
	C89.801399,231.191193 89.586601,231.432785 89.189728,231.836487 
	C89.186562,231.716537 89.355919,231.426010 89.765968,231.038269 
z"/>
<path fill="#3B6D2B" opacity="1.000000" stroke="none" 
	d="
M357.835510,240.822479 
	C357.734833,240.843002 357.562958,240.689819 357.257629,240.426331 
	C357.419250,240.273453 357.632599,240.384369 357.835510,240.822479 
z"/>
<path fill="#3B6D2B" opacity="1.000000" stroke="none" 
	d="
M363.879456,246.774109 
	C363.744293,246.785095 363.523346,246.559143 363.147339,246.152679 
	C363.323151,246.067795 363.590271,246.256134 363.879456,246.774109 
z"/>
<path fill="#3B6D2B" opacity="1.000000" stroke="none" 
	d="
M385.683838,271.752319 
	C385.535370,271.770844 385.373871,271.570557 385.108673,271.207275 
	C385.285339,271.122162 385.507294,271.285217 385.683838,271.752319 
z"/>
<path fill="#3B6D2B" opacity="1.000000" stroke="none" 
	d="
M368.873596,251.778168 
	C368.753510,251.784546 368.536560,251.572464 368.163513,251.194916 
	C368.324707,251.116669 368.581116,251.293427 368.873596,251.778168 
z"/>
<path fill="#3B6D2B" opacity="1.000000" stroke="none" 
	d="
M369.896271,252.781250 
	C369.767914,252.794754 369.543884,252.581741 369.166840,252.194183 
	C369.337067,252.105621 369.599335,252.283981 369.896271,252.781250 
z"/>
<path fill="#3B6D2B" opacity="1.000000" stroke="none" 
	d="
M370.928772,253.785919 
	C370.799591,253.796173 370.566101,253.573792 370.167908,253.174255 
	C370.272675,253.187027 370.546417,253.372421 370.928772,253.785919 
z"/>
<path fill="#3B6D2B" opacity="1.000000" stroke="none" 
	d="
M371.918701,254.779999 
	C371.787476,254.787262 371.553589,254.556305 371.154633,254.141312 
	C371.259918,254.157333 371.535400,254.352158 371.918701,254.779999 
z"/>
<path fill="#3B6D2B" opacity="1.000000" stroke="none" 
	d="
M372.916260,255.787292 
	C372.794586,255.787521 372.560455,255.557617 372.157562,255.147949 
	C372.256775,255.168274 372.528473,255.364578 372.916260,255.787292 
z"/>
<path fill="#3B6D2B" opacity="1.000000" stroke="none" 
	d="
M373.886322,256.784363 
	C373.764496,256.783661 373.539124,256.553406 373.151184,256.143616 
	C373.250305,256.163940 373.515015,256.360870 373.886322,256.784363 
z"/>
<path fill="#3B6D2B" opacity="1.000000" stroke="none" 
	d="
M374.888611,257.788696 
	C374.767365,257.792175 374.542267,257.571075 374.155151,257.177185 
	C374.317535,257.104065 374.581421,257.290619 374.888611,257.788696 
z"/>
<path fill="#3B6D2B" opacity="1.000000" stroke="none" 
	d="
M375.702026,258.712891 
	C375.557404,258.727997 375.392212,258.524170 375.112671,258.159576 
	C375.278442,258.087097 375.506165,258.252167 375.702026,258.712891 
z"/>
<path fill="#592C1A" opacity="1.000000" stroke="none" 
	d="
M340.801483,314.107239 
	C348.569183,325.466187 350.768341,338.415802 350.335724,351.685699 
	C349.303406,383.348236 332.407867,406.054016 306.848724,422.285065 
	C262.779968,450.270386 215.619720,453.969666 166.487274,437.307861 
	C144.680099,429.912598 125.973206,417.929169 111.311386,400.099091 
	C90.263229,374.502686 86.132957,340.715057 102.547318,314.078339 
	C110.024147,308.171997 117.477539,303.813995 126.183777,301.271057 
	C149.950897,294.329041 169.185684,303.541168 177.547974,326.966003 
	C181.012466,336.670837 183.202835,346.822601 186.321732,356.660461 
	C192.016571,374.623505 206.377991,388.372375 228.004517,382.826599 
	C238.532822,380.126801 246.904037,373.516418 251.297287,363.838684 
	C257.055267,351.154694 260.957550,337.641357 266.062378,324.643585 
	C270.038849,314.518799 276.556610,306.012787 287.198822,302.634247 
	C304.385681,297.177979 320.750488,299.142517 335.286102,310.784149 
	C336.946594,312.114044 338.954620,313.010040 340.801483,314.107239 
z"/>
<path fill="#79402D" opacity="1.000000" stroke="none" 
	d="
M340.750824,313.755798 
	C338.954620,313.010040 336.946594,312.114044 335.286102,310.784149 
	C320.750488,299.142517 304.385681,297.177979 287.198822,302.634247 
	C276.556610,306.012787 270.038849,314.518799 266.062378,324.643585 
	C260.957550,337.641357 257.055267,351.154694 251.297287,363.838684 
	C246.904037,373.516418 238.532822,380.126801 228.004517,382.826599 
	C206.377991,388.372375 192.016571,374.623505 186.321732,356.660461 
	C183.202835,346.822601 181.012466,336.670837 177.547974,326.966003 
	C169.185684,303.541168 149.950897,294.329041 126.183777,301.271057 
	C117.477539,303.813995 110.024147,308.171997 102.778198,313.788879 
	C106.537842,302.723511 114.522484,294.403351 123.106384,286.843658 
	C139.587708,272.328796 158.669617,262.595093 180.766968,258.326050 
	C181.055374,262.265686 181.002640,265.892578 180.567093,269.472961 
	C177.443741,295.148804 185.203247,316.473938 206.142303,332.193909 
	C217.503204,340.723083 230.850540,345.026154 244.525787,348.275604 
	C245.511261,348.509735 246.640656,348.138214 248.441345,347.985809 
	C247.254761,345.162689 246.479752,342.841034 245.350464,340.706757 
	C235.323807,321.757050 237.211411,311.371704 254.205124,295.345947 
	C255.654678,293.978943 257.201355,292.703735 258.782043,291.488831 
	C268.381866,284.110657 274.415649,274.422821 277.474884,262.791016 
	C289.678650,265.644928 300.426331,271.535217 310.344543,278.962067 
	C322.833923,288.314270 334.029175,298.886719 340.750824,313.755798 
z"/>
<path fill="#296D1B" opacity="1.000000" stroke="none" 
	d="
M75.112640,385.995575 
	C75.348289,386.493439 75.583939,386.991272 75.805573,388.067932 
	C75.600517,393.918610 78.188042,397.774384 82.071861,400.969482 
	C82.071861,400.969482 82.025703,401.002411 82.134064,401.268799 
	C82.849442,402.351715 83.456451,403.168213 84.063461,403.984680 
	C84.316650,404.425262 84.569847,404.865814 85.065155,405.746094 
	C85.520531,406.442352 85.733810,406.698944 85.947083,406.955505 
	C85.947083,406.955505 86.003105,407.387024 86.101868,407.942505 
	C87.169708,409.655304 88.138786,410.812592 89.107880,411.969910 
	C89.399292,412.430725 89.690712,412.891571 89.813980,413.812195 
	C88.398224,414.903748 87.150620,415.535492 85.903015,416.167206 
	C85.903008,416.167206 85.884636,416.106720 85.799911,415.809601 
	C84.456886,414.699829 83.198601,413.887207 81.940308,413.074585 
	C81.665321,412.630310 81.390327,412.186066 80.875336,411.233093 
	C80.088882,410.157410 79.542427,409.590454 78.995972,409.023468 
	C67.279747,393.289764 59.066395,376.120636 56.498100,356.410522 
	C53.607563,334.227417 55.669605,312.798615 66.055962,292.764923 
	C75.900620,273.776123 91.138992,259.864441 109.269333,248.861893 
	C131.791718,235.194031 156.206406,227.613693 182.459412,226.290695 
	C192.548660,225.782242 202.616547,227.265411 211.134933,233.196533 
	C225.737564,243.363953 229.839722,258.022644 227.332047,274.908630 
	C226.504288,280.482605 225.027924,286.009491 223.334946,291.396606 
	C218.134323,307.945221 221.254547,322.593475 232.633850,335.911865 
	C230.881927,336.096039 229.155075,336.167419 227.659485,335.613922 
	C200.936340,325.724243 181.648453,302.016846 187.673676,267.054138 
	C188.288452,263.486694 188.272827,259.810638 188.549744,256.184967 
	C188.365005,250.970566 184.739700,248.433167 180.444641,248.326721 
	C171.876450,248.114334 163.101089,247.900970 154.735931,249.445831 
	C130.974930,253.833984 110.649307,265.005798 94.519775,283.191223 
	C72.665527,307.831024 64.906822,336.465454 70.869225,368.836792 
	C71.200363,370.634583 71.563324,372.426575 71.899666,374.857422 
	C72.228165,376.313629 72.568474,377.133698 72.908783,377.953766 
	C72.966812,378.377045 73.024841,378.800293 73.037415,379.843658 
	C73.698845,382.307678 74.405746,384.151642 75.112640,385.995575 
z"/>
<path fill="#563017" opacity="1.000000" stroke="none" 
	d="
M188.217285,256.235291 
	C188.272827,259.810638 188.288452,263.486694 187.673676,267.054138 
	C181.648453,302.016846 200.936340,325.724243 227.659485,335.613922 
	C229.155075,336.167419 230.881927,336.096039 232.827423,336.197479 
	C233.363190,334.258820 234.066483,332.332764 233.703903,330.634216 
	C230.850494,317.267334 233.495850,305.579956 243.712448,296.038727 
	C248.930130,291.165924 254.683487,286.742096 259.222443,281.303864 
	C263.381561,276.320709 266.673767,270.460052 269.522339,264.585724 
	C271.813934,259.859955 271.884094,259.389618 277.258331,262.497742 
	C274.415649,274.422821 268.381866,284.110657 258.782043,291.488831 
	C257.201355,292.703735 255.654678,293.978943 254.205124,295.345947 
	C237.211411,311.371704 235.323807,321.757050 245.350464,340.706757 
	C246.479752,342.841034 247.254761,345.162689 248.441345,347.985809 
	C246.640656,348.138214 245.511261,348.509735 244.525787,348.275604 
	C230.850540,345.026154 217.503204,340.723083 206.142303,332.193909 
	C185.203247,316.473938 177.443741,295.148804 180.567093,269.472961 
	C181.002640,265.892578 181.055374,262.265686 181.173950,258.281921 
	C183.336670,257.364227 185.610733,256.824951 188.217285,256.235291 
z"/>
<path fill="#2D7119" opacity="1.000000" stroke="none" 
	d="
M197.967957,146.460297 
	C201.537704,143.499786 201.342773,140.558685 199.380798,136.706512 
	C197.948181,133.893631 197.231735,130.427902 197.212265,127.246979 
	C197.178040,121.658424 197.654678,116.026070 198.462982,110.491753 
	C198.818329,108.058693 200.512497,105.821175 202.088135,103.236710 
	C202.963943,102.969391 203.350403,102.960243 203.736877,102.951088 
	C203.150772,111.732056 201.825943,120.540428 202.150375,129.287613 
	C202.646683,142.668365 209.573044,153.500076 217.843033,163.622437 
	C229.843948,178.311432 246.036865,187.241486 262.045990,196.472397 
	C262.910858,196.971069 263.812439,197.408829 264.655579,197.940521 
	C264.875977,198.079514 264.940765,198.465317 265.509247,199.602219 
	C236.735199,189.164291 210.766876,176.547318 197.967957,146.460297 
z"/>
<path fill="#000000" opacity="1.000000" stroke="none" 
	d="
M233.933990,117.826157 
	C236.846893,105.852516 239.730011,94.286469 242.613129,82.720421 
	C242.953690,82.759071 243.294266,82.797722 243.634842,82.836365 
	C242.562256,91.270981 241.626373,99.725876 240.379364,108.134628 
	C239.081741,116.884674 236.896027,125.540337 236.151062,134.326492 
	C234.955856,148.422943 237.514252,161.842804 247.045731,173.519348 
	C241.470917,173.671860 234.285172,168.020218 232.030334,163.224274 
	C225.492386,149.318314 228.753021,135.664032 232.597214,121.970047 
	C232.953125,120.702232 233.464844,119.478142 233.933990,117.826157 
z"/>
<path fill="#277113" opacity="1.000000" stroke="none" 
	d="
M86.029587,416.471191 
	C87.150620,415.535492 88.398224,414.903748 89.931763,414.058411 
	C98.384911,422.405151 106.552116,430.965454 114.719330,439.525757 
	C103.875214,433.638214 93.447655,427.189758 86.029587,416.471191 
z"/>
<path fill="#2A6A19" opacity="1.000000" stroke="none" 
	d="
M203.876373,102.593735 
	C203.350403,102.960243 202.963943,102.969391 202.286224,102.984512 
	C202.736588,98.237801 199.760544,93.251747 202.970627,88.283264 
	C204.478607,88.204437 205.911133,88.491615 207.691650,88.894890 
	C206.698364,93.419456 205.357117,97.827919 203.876373,102.593735 
z"/>
<path fill="#277113" opacity="1.000000" stroke="none" 
	d="
M81.967819,400.624268 
	C78.188042,397.774384 75.600517,393.918610 75.884903,388.332275 
	C77.940079,392.104889 79.901924,396.191956 81.967819,400.624268 
z"/>
<path fill="#296B1C" opacity="1.000000" stroke="none" 
	d="
M331.685699,225.323364 
	C333.245789,226.267685 335.004700,227.513641 336.868469,229.132355 
	C335.277039,228.211761 333.580780,226.918381 331.685699,225.323364 
z"/>
<path fill="#277113" opacity="1.000000" stroke="none" 
	d="
M75.046425,385.638916 
	C74.405746,384.151642 73.698845,382.307678 73.065536,380.162842 
	C73.752815,381.668732 74.366508,383.475525 75.046425,385.638916 
z"/>
<path fill="#277113" opacity="1.000000" stroke="none" 
	d="
M82.139038,413.322815 
	C83.198601,413.887207 84.456886,414.699829 85.825836,415.791504 
	C84.736908,415.237335 83.537338,414.404175 82.139038,413.322815 
z"/>
<path fill="#277113" opacity="1.000000" stroke="none" 
	d="
M88.986710,411.667236 
	C88.138786,410.812592 87.169708,409.655304 86.124542,408.158905 
	C86.987480,409.001404 87.926514,410.183014 88.986710,411.667236 
z"/>
<path fill="#277113" opacity="1.000000" stroke="none" 
	d="
M72.858704,377.650360 
	C72.568474,377.133698 72.228165,376.313629 71.938293,375.261200 
	C72.262032,375.801544 72.535324,376.574249 72.858704,377.650360 
z"/>
<path fill="#277113" opacity="1.000000" stroke="none" 
	d="
M83.950958,403.697449 
	C83.456451,403.168213 82.849442,402.351715 82.140518,401.241211 
	C82.638550,401.768219 83.238503,402.589233 83.950958,403.697449 
z"/>
<path fill="#277113" opacity="1.000000" stroke="none" 
	d="
M119.906433,443.114807 
	C119.380226,442.941437 118.854027,442.768005 118.327820,442.594604 
	C118.408691,442.397736 118.489563,442.200836 118.570435,442.003967 
	C118.985237,442.209808 119.400040,442.415649 119.903656,442.824585 
	C119.992477,443.027649 119.906441,443.114807 119.906433,443.114807 
z"/>
<path fill="#277113" opacity="1.000000" stroke="none" 
	d="
M79.165176,409.263794 
	C79.542427,409.590454 80.088882,410.157410 80.793320,410.983246 
	C80.412323,410.662750 79.873344,410.083435 79.165176,409.263794 
z"/>
<path fill="#277113" opacity="1.000000" stroke="none" 
	d="
M85.812988,406.743103 
	C85.733810,406.698944 85.520531,406.442352 85.152679,405.985352 
	C85.225037,406.033508 85.451965,406.282135 85.812988,406.743103 
z"/>
<path fill="#277113" opacity="1.000000" stroke="none" 
	d="
M120.035049,442.983643 
	C120.077614,442.939606 119.983124,443.142639 119.944778,443.128723 
	C119.906441,443.114807 119.992477,443.027649 120.035049,442.983643 
z"/>
<path fill="#296B1C" opacity="1.000000" stroke="none" 
	d="
M329.846252,224.198471 
	C329.967041,224.223618 330.381561,224.448456 331.111328,224.846558 
	C330.997711,224.812607 330.568878,224.605392 329.846252,224.198471 
z"/>
</svg>